<svg width="46" height="46" viewBox="0 0 46 46" fill="none" xmlns="http://www.w3.org/2000/svg">
<path d="M23 0.5C35.4264 0.5 45.5 10.5736 45.5 23C45.5 35.4264 35.4264 45.5 23 45.5C10.5736 45.5 0.5 35.4264 0.5 23C0.5 10.5736 10.5736 0.5 23 0.5Z" fill="#2C2C2C"/>
<path d="M23 0.5C35.4264 0.5 45.5 10.5736 45.5 23C45.5 35.4264 35.4264 45.5 23 45.5C10.5736 45.5 0.5 35.4264 0.5 23C0.5 10.5736 10.5736 0.5 23 0.5Z" stroke="#2C2C2C" stroke-linecap="round"/>
<path d="M22.8267 24.46H21.1467V30H18.5067V16.18H22.6267C26.2801 16.18 28.1067 17.5333 28.1067 20.24C28.1067 21.16 27.8801 21.92 27.4267 22.52C26.9734 23.12 26.2667 23.6067 25.3067 23.98L28.9267 30H25.8867L22.8267 24.46ZM21.1467 22.56H22.7867C23.6267 22.56 24.2601 22.38 24.6867 22.02C25.1267 21.6467 25.3467 21.0533 25.3467 20.24C25.3467 19.4933 25.1201 18.9533 24.6667 18.62C24.2267 18.2733 23.5267 18.1 22.5667 18.1H21.1467V22.56Z" fill="white"/>
</svg>
